G04 (created by PCBNEW-RS274X (2012-apr-16-27)-stable) date Wed 27 Jan 2016 07:56:39 AM BRST*
G01*
G70*
G90*
%MOIN*%
G04 Gerber Fmt 3.4, Leading zero omitted, Abs format*
%FSLAX34Y34*%
G04 APERTURE LIST*
%ADD10C,0.006000*%
%ADD11C,0.055000*%
%ADD12R,0.350000X0.350000*%
%ADD13C,0.070000*%
%ADD14R,0.070000X0.070000*%
%ADD15C,0.066000*%
%ADD16R,0.055000X0.055000*%
%ADD17R,0.065000X0.065000*%
%ADD18C,0.065000*%
%ADD19R,0.100000X0.100000*%
%ADD20C,0.100000*%
G04 APERTURE END LIST*
G54D10*
G54D11*
X64150Y-31400D03*
X61150Y-31400D03*
G54D12*
X57650Y-50300D03*
G54D13*
X58650Y-43800D03*
G54D14*
X57650Y-43800D03*
G54D13*
X56650Y-43800D03*
G54D15*
X51900Y-35800D03*
X52900Y-35800D03*
X51900Y-31850D03*
X52900Y-31850D03*
G54D16*
X52950Y-42000D03*
G54D11*
X53950Y-42000D03*
X54950Y-42000D03*
X55950Y-42000D03*
X55950Y-39000D03*
X54950Y-39000D03*
X53950Y-39000D03*
X52950Y-39000D03*
G54D16*
X58900Y-39000D03*
G54D11*
X58900Y-40000D03*
X58900Y-41000D03*
X58900Y-42000D03*
X61900Y-42000D03*
X61900Y-41000D03*
X61900Y-40000D03*
X61900Y-39000D03*
G54D14*
X63900Y-46300D03*
G54D13*
X61900Y-46300D03*
G54D14*
X64050Y-36100D03*
G54D13*
X62050Y-36100D03*
G54D11*
X64050Y-33100D03*
X62050Y-33100D03*
X57450Y-40000D03*
X57450Y-42000D03*
G54D17*
X52450Y-46300D03*
G54D18*
X51450Y-46300D03*
G54D17*
X59400Y-36250D03*
G54D18*
X58400Y-36250D03*
G54D19*
X51450Y-50600D03*
G54D20*
X53450Y-50600D03*
G54D19*
X58550Y-32600D03*
G54D20*
X56550Y-32600D03*
G54D19*
X62200Y-50700D03*
G54D20*
X64200Y-50700D03*
G54D11*
X54250Y-32800D03*
X54250Y-35800D03*
X51950Y-43100D03*
X54950Y-43100D03*
M02*
