M48
INCH,TZ
T1C0.032
T2C0.040
T3C0.045
T4C0.060
T5C0.120
%
G90
G05
T1
X51450Y-46300
X51900Y-31850
X51900Y-35800
X51950Y-43100
X52450Y-46300
X52900Y-31850
X52900Y-35800
X52950Y-39000
X52950Y-42000
X53950Y-39000
X53950Y-42000
X54250Y-32800
X54250Y-35800
X54950Y-39000
X54950Y-42000
X54950Y-43100
X55950Y-39000
X55950Y-42000
X57450Y-40000
X57450Y-42000
X58400Y-36250
X58900Y-39000
X58900Y-40000
X58900Y-41000
X58900Y-42000
X59400Y-36250
X61150Y-31400
X61900Y-39000
X61900Y-40000
X61900Y-41000
X61900Y-42000
X62050Y-33100
X64050Y-33100
X64150Y-31400
T2
X61900Y-46300
X62050Y-36100
X63900Y-46300
X64050Y-36100
T3
X56650Y-43800
X57650Y-43800
X58650Y-43800
T4
X51450Y-50600
X53450Y-50600
X56550Y-32600
X58550Y-32600
X62200Y-50700
X64200Y-50700
T5
X57650Y-50300
T0
M30
