G04 (created by PCBNEW-RS274X (2012-apr-16-27)-stable) date Wed 27 Jan 2016 07:56:39 AM BRST*
G01*
G70*
G90*
%MOIN*%
G04 Gerber Fmt 3.4, Leading zero omitted, Abs format*
%FSLAX34Y34*%
G04 APERTURE LIST*
%ADD10C,0.006000*%
%ADD11C,0.008000*%
%ADD12C,0.012000*%
%ADD13C,0.003000*%
%ADD14C,0.010000*%
%ADD15C,0.003500*%
G04 APERTURE END LIST*
G54D10*
G54D11*
X64150Y-31400D02*
X63950Y-31400D01*
X61150Y-31400D02*
X61350Y-31400D01*
X61350Y-31400D02*
X61350Y-31800D01*
X61350Y-31800D02*
X63950Y-31800D01*
X63950Y-31800D02*
X63950Y-31000D01*
X63950Y-31000D02*
X61350Y-31000D01*
X61350Y-31000D02*
X61350Y-31400D01*
X63950Y-31600D02*
X63750Y-31800D01*
G54D12*
X58650Y-43800D02*
X58650Y-45800D01*
X57650Y-43800D02*
X57650Y-45800D01*
X56650Y-43800D02*
X56650Y-45800D01*
X59150Y-45800D02*
X55650Y-45800D01*
X55650Y-45800D02*
X55650Y-51800D01*
X55650Y-51800D02*
X59650Y-51800D01*
X59150Y-45800D02*
X59650Y-45800D01*
X56150Y-48800D02*
X59650Y-48800D01*
X56150Y-48800D02*
X55650Y-48800D01*
X59650Y-45800D02*
X59650Y-51800D01*
G54D11*
X53520Y-36550D02*
X53520Y-35050D01*
G54D13*
X53207Y-35800D02*
X53193Y-35937D01*
X53153Y-36069D01*
X53088Y-36191D01*
X53001Y-36298D01*
X52895Y-36386D01*
X52773Y-36451D01*
X52642Y-36492D01*
X52504Y-36506D01*
X52368Y-36494D01*
X52236Y-36455D01*
X52113Y-36391D01*
X52006Y-36305D01*
X51917Y-36199D01*
X51851Y-36078D01*
X51809Y-35946D01*
X51794Y-35809D01*
X51805Y-35673D01*
X51843Y-35540D01*
X51906Y-35418D01*
X51992Y-35309D01*
X52097Y-35220D01*
X52217Y-35153D01*
X52349Y-35110D01*
X52486Y-35094D01*
X52622Y-35104D01*
X52755Y-35141D01*
X52878Y-35204D01*
X52987Y-35289D01*
X53077Y-35393D01*
X53145Y-35513D01*
X53189Y-35644D01*
X53206Y-35781D01*
X53207Y-35800D01*
G54D14*
X53499Y-35050D02*
X53430Y-34966D01*
X53354Y-34888D01*
X53271Y-34817D01*
X53182Y-34753D01*
X53088Y-34698D01*
X52990Y-34651D01*
X52888Y-34612D01*
X52783Y-34583D01*
X52676Y-34563D01*
X52567Y-34552D01*
X52459Y-34551D01*
X52350Y-34560D01*
X52243Y-34577D01*
X52137Y-34604D01*
X52034Y-34641D01*
X51935Y-34686D01*
X51840Y-34739D01*
X51750Y-34801D01*
X51666Y-34870D01*
X51588Y-34946D01*
X51517Y-35029D01*
X51453Y-35118D01*
X51398Y-35212D01*
X51351Y-35310D01*
X51312Y-35412D01*
X51283Y-35517D01*
X51263Y-35624D01*
X51252Y-35733D01*
X51251Y-35841D01*
X51260Y-35950D01*
X51277Y-36057D01*
X51304Y-36163D01*
X51341Y-36266D01*
X51386Y-36365D01*
X51439Y-36460D01*
X51501Y-36550D01*
X51570Y-36634D01*
X51646Y-36712D01*
X51729Y-36783D01*
X51818Y-36847D01*
X51912Y-36902D01*
X52010Y-36949D01*
X52112Y-36988D01*
X52217Y-37017D01*
X52324Y-37037D01*
X52433Y-37048D01*
X52541Y-37049D01*
X52650Y-37040D01*
X52757Y-37023D01*
X52863Y-36996D01*
X52966Y-36959D01*
X53065Y-36914D01*
X53160Y-36861D01*
X53250Y-36799D01*
X53334Y-36730D01*
X53412Y-36654D01*
X53483Y-36571D01*
X53499Y-36550D01*
G54D10*
X52500Y-35350D02*
X52461Y-35352D01*
X52422Y-35357D01*
X52384Y-35366D01*
X52347Y-35378D01*
X52310Y-35393D01*
X52276Y-35411D01*
X52242Y-35432D01*
X52211Y-35456D01*
X52182Y-35482D01*
X52156Y-35511D01*
X52132Y-35542D01*
X52111Y-35576D01*
X52093Y-35610D01*
X52078Y-35647D01*
X52066Y-35684D01*
X52057Y-35722D01*
X52052Y-35761D01*
X52050Y-35800D01*
X52500Y-36250D02*
X52539Y-36248D01*
X52578Y-36243D01*
X52616Y-36234D01*
X52653Y-36222D01*
X52690Y-36207D01*
X52725Y-36189D01*
X52758Y-36168D01*
X52789Y-36144D01*
X52818Y-36118D01*
X52844Y-36089D01*
X52868Y-36058D01*
X52889Y-36024D01*
X52907Y-35990D01*
X52922Y-35953D01*
X52934Y-35916D01*
X52943Y-35878D01*
X52948Y-35839D01*
X52950Y-35800D01*
X52500Y-35150D02*
X52444Y-35153D01*
X52388Y-35160D01*
X52332Y-35173D01*
X52278Y-35190D01*
X52226Y-35211D01*
X52176Y-35238D01*
X52128Y-35268D01*
X52083Y-35303D01*
X52041Y-35341D01*
X52003Y-35383D01*
X51968Y-35428D01*
X51938Y-35476D01*
X51911Y-35526D01*
X51890Y-35578D01*
X51873Y-35632D01*
X51860Y-35688D01*
X51853Y-35744D01*
X51850Y-35800D01*
X52500Y-36450D02*
X52556Y-36447D01*
X52612Y-36440D01*
X52668Y-36427D01*
X52722Y-36410D01*
X52774Y-36389D01*
X52825Y-36362D01*
X52872Y-36332D01*
X52917Y-36297D01*
X52959Y-36259D01*
X52997Y-36217D01*
X53032Y-36172D01*
X53062Y-36124D01*
X53089Y-36074D01*
X53110Y-36022D01*
X53127Y-35968D01*
X53140Y-35912D01*
X53147Y-35856D01*
X53150Y-35800D01*
X52500Y-34950D02*
X52426Y-34954D01*
X52353Y-34963D01*
X52281Y-34979D01*
X52210Y-35002D01*
X52141Y-35030D01*
X52076Y-35064D01*
X52013Y-35104D01*
X51954Y-35149D01*
X51899Y-35199D01*
X51849Y-35254D01*
X51804Y-35313D01*
X51764Y-35376D01*
X51730Y-35441D01*
X51702Y-35510D01*
X51679Y-35581D01*
X51663Y-35653D01*
X51654Y-35726D01*
X51650Y-35800D01*
X52500Y-36650D02*
X52574Y-36646D01*
X52647Y-36637D01*
X52719Y-36621D01*
X52790Y-36598D01*
X52859Y-36570D01*
X52925Y-36536D01*
X52987Y-36496D01*
X53046Y-36451D01*
X53101Y-36401D01*
X53151Y-36346D01*
X53196Y-36287D01*
X53236Y-36224D01*
X53270Y-36159D01*
X53298Y-36090D01*
X53321Y-36019D01*
X53337Y-35947D01*
X53346Y-35874D01*
X53350Y-35800D01*
G54D11*
X53520Y-32600D02*
X53520Y-31100D01*
G54D13*
X53207Y-31850D02*
X53193Y-31987D01*
X53153Y-32119D01*
X53088Y-32241D01*
X53001Y-32348D01*
X52895Y-32436D01*
X52773Y-32501D01*
X52642Y-32542D01*
X52504Y-32556D01*
X52368Y-32544D01*
X52236Y-32505D01*
X52113Y-32441D01*
X52006Y-32355D01*
X51917Y-32249D01*
X51851Y-32128D01*
X51809Y-31996D01*
X51794Y-31859D01*
X51805Y-31723D01*
X51843Y-31590D01*
X51906Y-31468D01*
X51992Y-31359D01*
X52097Y-31270D01*
X52217Y-31203D01*
X52349Y-31160D01*
X52486Y-31144D01*
X52622Y-31154D01*
X52755Y-31191D01*
X52878Y-31254D01*
X52987Y-31339D01*
X53077Y-31443D01*
X53145Y-31563D01*
X53189Y-31694D01*
X53206Y-31831D01*
X53207Y-31850D01*
G54D14*
X53499Y-31100D02*
X53430Y-31016D01*
X53354Y-30938D01*
X53271Y-30867D01*
X53182Y-30803D01*
X53088Y-30748D01*
X52990Y-30701D01*
X52888Y-30662D01*
X52783Y-30633D01*
X52676Y-30613D01*
X52567Y-30602D01*
X52459Y-30601D01*
X52350Y-30610D01*
X52243Y-30627D01*
X52137Y-30654D01*
X52034Y-30691D01*
X51935Y-30736D01*
X51840Y-30789D01*
X51750Y-30851D01*
X51666Y-30920D01*
X51588Y-30996D01*
X51517Y-31079D01*
X51453Y-31168D01*
X51398Y-31262D01*
X51351Y-31360D01*
X51312Y-31462D01*
X51283Y-31567D01*
X51263Y-31674D01*
X51252Y-31783D01*
X51251Y-31891D01*
X51260Y-32000D01*
X51277Y-32107D01*
X51304Y-32213D01*
X51341Y-32316D01*
X51386Y-32415D01*
X51439Y-32510D01*
X51501Y-32600D01*
X51570Y-32684D01*
X51646Y-32762D01*
X51729Y-32833D01*
X51818Y-32897D01*
X51912Y-32952D01*
X52010Y-32999D01*
X52112Y-33038D01*
X52217Y-33067D01*
X52324Y-33087D01*
X52433Y-33098D01*
X52541Y-33099D01*
X52650Y-33090D01*
X52757Y-33073D01*
X52863Y-33046D01*
X52966Y-33009D01*
X53065Y-32964D01*
X53160Y-32911D01*
X53250Y-32849D01*
X53334Y-32780D01*
X53412Y-32704D01*
X53483Y-32621D01*
X53499Y-32600D01*
G54D10*
X52500Y-31400D02*
X52461Y-31402D01*
X52422Y-31407D01*
X52384Y-31416D01*
X52347Y-31428D01*
X52310Y-31443D01*
X52276Y-31461D01*
X52242Y-31482D01*
X52211Y-31506D01*
X52182Y-31532D01*
X52156Y-31561D01*
X52132Y-31592D01*
X52111Y-31626D01*
X52093Y-31660D01*
X52078Y-31697D01*
X52066Y-31734D01*
X52057Y-31772D01*
X52052Y-31811D01*
X52050Y-31850D01*
X52500Y-32300D02*
X52539Y-32298D01*
X52578Y-32293D01*
X52616Y-32284D01*
X52653Y-32272D01*
X52690Y-32257D01*
X52725Y-32239D01*
X52758Y-32218D01*
X52789Y-32194D01*
X52818Y-32168D01*
X52844Y-32139D01*
X52868Y-32108D01*
X52889Y-32074D01*
X52907Y-32040D01*
X52922Y-32003D01*
X52934Y-31966D01*
X52943Y-31928D01*
X52948Y-31889D01*
X52950Y-31850D01*
X52500Y-31200D02*
X52444Y-31203D01*
X52388Y-31210D01*
X52332Y-31223D01*
X52278Y-31240D01*
X52226Y-31261D01*
X52176Y-31288D01*
X52128Y-31318D01*
X52083Y-31353D01*
X52041Y-31391D01*
X52003Y-31433D01*
X51968Y-31478D01*
X51938Y-31526D01*
X51911Y-31576D01*
X51890Y-31628D01*
X51873Y-31682D01*
X51860Y-31738D01*
X51853Y-31794D01*
X51850Y-31850D01*
X52500Y-32500D02*
X52556Y-32497D01*
X52612Y-32490D01*
X52668Y-32477D01*
X52722Y-32460D01*
X52774Y-32439D01*
X52825Y-32412D01*
X52872Y-32382D01*
X52917Y-32347D01*
X52959Y-32309D01*
X52997Y-32267D01*
X53032Y-32222D01*
X53062Y-32174D01*
X53089Y-32124D01*
X53110Y-32072D01*
X53127Y-32018D01*
X53140Y-31962D01*
X53147Y-31906D01*
X53150Y-31850D01*
X52500Y-31000D02*
X52426Y-31004D01*
X52353Y-31013D01*
X52281Y-31029D01*
X52210Y-31052D01*
X52141Y-31080D01*
X52076Y-31114D01*
X52013Y-31154D01*
X51954Y-31199D01*
X51899Y-31249D01*
X51849Y-31304D01*
X51804Y-31363D01*
X51764Y-31426D01*
X51730Y-31491D01*
X51702Y-31560D01*
X51679Y-31631D01*
X51663Y-31703D01*
X51654Y-31776D01*
X51650Y-31850D01*
X52500Y-32700D02*
X52574Y-32696D01*
X52647Y-32687D01*
X52719Y-32671D01*
X52790Y-32648D01*
X52859Y-32620D01*
X52925Y-32586D01*
X52987Y-32546D01*
X53046Y-32501D01*
X53101Y-32451D01*
X53151Y-32396D01*
X53196Y-32337D01*
X53236Y-32274D01*
X53270Y-32209D01*
X53298Y-32140D01*
X53321Y-32069D01*
X53337Y-31997D01*
X53346Y-31924D01*
X53350Y-31850D01*
G54D14*
X52450Y-40000D02*
X52950Y-40000D01*
X52950Y-40000D02*
X52950Y-41000D01*
X52950Y-41000D02*
X52450Y-41000D01*
X52450Y-39500D02*
X56450Y-39500D01*
X56450Y-39500D02*
X56450Y-41500D01*
X56450Y-41500D02*
X52450Y-41500D01*
X52450Y-41500D02*
X52450Y-39500D01*
X60900Y-38500D02*
X60900Y-39000D01*
X60900Y-39000D02*
X59900Y-39000D01*
X59900Y-39000D02*
X59900Y-38500D01*
X61400Y-38500D02*
X61400Y-42500D01*
X61400Y-42500D02*
X59400Y-42500D01*
X59400Y-42500D02*
X59400Y-38500D01*
X59400Y-38500D02*
X61400Y-38500D01*
G54D12*
X65095Y-46300D02*
X65053Y-46726D01*
X64929Y-47136D01*
X64728Y-47514D01*
X64457Y-47846D01*
X64127Y-48119D01*
X63750Y-48323D01*
X63341Y-48450D01*
X62915Y-48494D01*
X62489Y-48456D01*
X62078Y-48335D01*
X61699Y-48136D01*
X61365Y-47868D01*
X61089Y-47540D01*
X60883Y-47164D01*
X60753Y-46756D01*
X60706Y-46330D01*
X60742Y-45904D01*
X60860Y-45492D01*
X61055Y-45111D01*
X61322Y-44776D01*
X61648Y-44498D01*
X62022Y-44289D01*
X62429Y-44157D01*
X62855Y-44106D01*
X63281Y-44139D01*
X63693Y-44254D01*
X64076Y-44447D01*
X64413Y-44711D01*
X64693Y-45035D01*
X64905Y-45408D01*
X65040Y-45814D01*
X65094Y-46239D01*
X65095Y-46300D01*
X65245Y-36100D02*
X65203Y-36526D01*
X65079Y-36936D01*
X64878Y-37314D01*
X64607Y-37646D01*
X64277Y-37919D01*
X63900Y-38123D01*
X63491Y-38250D01*
X63065Y-38294D01*
X62639Y-38256D01*
X62228Y-38135D01*
X61849Y-37936D01*
X61515Y-37668D01*
X61239Y-37340D01*
X61033Y-36964D01*
X60903Y-36556D01*
X60856Y-36130D01*
X60892Y-35704D01*
X61010Y-35292D01*
X61205Y-34911D01*
X61472Y-34576D01*
X61798Y-34298D01*
X62172Y-34089D01*
X62579Y-33957D01*
X63005Y-33906D01*
X63431Y-33939D01*
X63843Y-34054D01*
X64226Y-34247D01*
X64563Y-34511D01*
X64843Y-34835D01*
X65055Y-35208D01*
X65190Y-35614D01*
X65244Y-36039D01*
X65245Y-36100D01*
X64450Y-33500D02*
X61650Y-33500D01*
X61650Y-33500D02*
X61650Y-32700D01*
X61650Y-32700D02*
X64450Y-32700D01*
X64450Y-32700D02*
X64450Y-33500D01*
X64450Y-33300D02*
X64250Y-33500D01*
X57850Y-39600D02*
X57850Y-42400D01*
X57850Y-42400D02*
X57050Y-42400D01*
X57050Y-42400D02*
X57050Y-39600D01*
X57050Y-39600D02*
X57850Y-39600D01*
X57650Y-39600D02*
X57850Y-39800D01*
G54D11*
X53550Y-46300D02*
X53519Y-46610D01*
X53429Y-46909D01*
X53282Y-47185D01*
X53085Y-47427D01*
X52844Y-47626D01*
X52570Y-47774D01*
X52271Y-47867D01*
X51961Y-47899D01*
X51651Y-47871D01*
X51351Y-47783D01*
X51074Y-47638D01*
X50831Y-47443D01*
X50630Y-47203D01*
X50480Y-46930D01*
X50385Y-46632D01*
X50351Y-46322D01*
X50377Y-46012D01*
X50463Y-45712D01*
X50606Y-45434D01*
X50800Y-45189D01*
X51037Y-44987D01*
X51310Y-44834D01*
X51607Y-44738D01*
X51917Y-44701D01*
X52227Y-44725D01*
X52528Y-44809D01*
X52807Y-44950D01*
X53053Y-45142D01*
X53257Y-45378D01*
X53411Y-45650D01*
X53510Y-45946D01*
X53549Y-46256D01*
X53550Y-46300D01*
X60500Y-36250D02*
X60469Y-36560D01*
X60379Y-36859D01*
X60232Y-37135D01*
X60035Y-37377D01*
X59794Y-37576D01*
X59520Y-37724D01*
X59221Y-37817D01*
X58911Y-37849D01*
X58601Y-37821D01*
X58301Y-37733D01*
X58024Y-37588D01*
X57781Y-37393D01*
X57580Y-37153D01*
X57430Y-36880D01*
X57335Y-36582D01*
X57301Y-36272D01*
X57327Y-35962D01*
X57413Y-35662D01*
X57556Y-35384D01*
X57750Y-35139D01*
X57987Y-34937D01*
X58260Y-34784D01*
X58557Y-34688D01*
X58867Y-34651D01*
X59177Y-34675D01*
X59478Y-34759D01*
X59757Y-34900D01*
X60003Y-35092D01*
X60207Y-35328D01*
X60361Y-35600D01*
X60460Y-35896D01*
X60499Y-36206D01*
X60500Y-36250D01*
G54D12*
X54450Y-51600D02*
X50450Y-51600D01*
X54450Y-52100D02*
X54450Y-49100D01*
X54450Y-49100D02*
X50450Y-49100D01*
X50450Y-49100D02*
X50450Y-52100D01*
X50450Y-52100D02*
X54450Y-52100D01*
X55550Y-31600D02*
X59550Y-31600D01*
X55550Y-31100D02*
X55550Y-34100D01*
X55550Y-34100D02*
X59550Y-34100D01*
X59550Y-34100D02*
X59550Y-31100D01*
X59550Y-31100D02*
X55550Y-31100D01*
X65200Y-51700D02*
X61200Y-51700D01*
X65200Y-52200D02*
X65200Y-49200D01*
X65200Y-49200D02*
X61200Y-49200D01*
X61200Y-49200D02*
X61200Y-52200D01*
X61200Y-52200D02*
X65200Y-52200D01*
G54D11*
X54250Y-32800D02*
X54250Y-33000D01*
X54250Y-35800D02*
X54250Y-35600D01*
X54250Y-35600D02*
X54650Y-35600D01*
X54650Y-35600D02*
X54650Y-33000D01*
X54650Y-33000D02*
X53850Y-33000D01*
X53850Y-33000D02*
X53850Y-35600D01*
X53850Y-35600D02*
X54250Y-35600D01*
X54450Y-33000D02*
X54650Y-33200D01*
X51950Y-43100D02*
X52150Y-43100D01*
X54950Y-43100D02*
X54750Y-43100D01*
X54750Y-43100D02*
X54750Y-42700D01*
X54750Y-42700D02*
X52150Y-42700D01*
X52150Y-42700D02*
X52150Y-43500D01*
X52150Y-43500D02*
X54750Y-43500D01*
X54750Y-43500D02*
X54750Y-43100D01*
X52150Y-42900D02*
X52350Y-42700D01*
X62305Y-31573D02*
X62019Y-31573D01*
X62162Y-31573D02*
X62162Y-31023D01*
X62114Y-31101D01*
X62067Y-31154D01*
X62019Y-31180D01*
X62614Y-31023D02*
X62662Y-31023D01*
X62710Y-31049D01*
X62733Y-31075D01*
X62757Y-31127D01*
X62781Y-31232D01*
X62781Y-31363D01*
X62757Y-31468D01*
X62733Y-31520D01*
X62710Y-31546D01*
X62662Y-31573D01*
X62614Y-31573D01*
X62567Y-31546D01*
X62543Y-31520D01*
X62519Y-31468D01*
X62495Y-31363D01*
X62495Y-31232D01*
X62519Y-31127D01*
X62543Y-31075D01*
X62567Y-31049D01*
X62614Y-31023D01*
X63281Y-31573D02*
X63114Y-31311D01*
X62995Y-31573D02*
X62995Y-31023D01*
X63186Y-31023D01*
X63233Y-31049D01*
X63257Y-31075D01*
X63281Y-31127D01*
X63281Y-31206D01*
X63257Y-31258D01*
X63233Y-31285D01*
X63186Y-31311D01*
X62995Y-31311D01*
X57345Y-46443D02*
X57345Y-46929D01*
X57364Y-46986D01*
X57383Y-47014D01*
X57421Y-47043D01*
X57498Y-47043D01*
X57536Y-47014D01*
X57555Y-46986D01*
X57574Y-46929D01*
X57574Y-46443D01*
X57974Y-47043D02*
X57745Y-47043D01*
X57859Y-47043D02*
X57859Y-46443D01*
X57821Y-46529D01*
X57783Y-46586D01*
X57745Y-46614D01*
X56734Y-48243D02*
X56543Y-48243D01*
X56543Y-47643D01*
X56867Y-48243D02*
X56867Y-47643D01*
X57001Y-48071D01*
X57134Y-47643D01*
X57134Y-48243D01*
X57286Y-47643D02*
X57553Y-47643D01*
X57381Y-48243D01*
X57762Y-47900D02*
X57724Y-47871D01*
X57705Y-47843D01*
X57686Y-47786D01*
X57686Y-47757D01*
X57705Y-47700D01*
X57724Y-47671D01*
X57762Y-47643D01*
X57839Y-47643D01*
X57877Y-47671D01*
X57896Y-47700D01*
X57915Y-47757D01*
X57915Y-47786D01*
X57896Y-47843D01*
X57877Y-47871D01*
X57839Y-47900D01*
X57762Y-47900D01*
X57724Y-47929D01*
X57705Y-47957D01*
X57686Y-48014D01*
X57686Y-48129D01*
X57705Y-48186D01*
X57724Y-48214D01*
X57762Y-48243D01*
X57839Y-48243D01*
X57877Y-48214D01*
X57896Y-48186D01*
X57915Y-48129D01*
X57915Y-48014D01*
X57896Y-47957D01*
X57877Y-47929D01*
X57839Y-47900D01*
X58162Y-47643D02*
X58201Y-47643D01*
X58239Y-47671D01*
X58258Y-47700D01*
X58277Y-47757D01*
X58296Y-47871D01*
X58296Y-48014D01*
X58277Y-48129D01*
X58258Y-48186D01*
X58239Y-48214D01*
X58201Y-48243D01*
X58162Y-48243D01*
X58124Y-48214D01*
X58105Y-48186D01*
X58086Y-48129D01*
X58067Y-48014D01*
X58067Y-47871D01*
X58086Y-47757D01*
X58105Y-47700D01*
X58124Y-47671D01*
X58162Y-47643D01*
X58658Y-47643D02*
X58467Y-47643D01*
X58448Y-47929D01*
X58467Y-47900D01*
X58505Y-47871D01*
X58601Y-47871D01*
X58639Y-47900D01*
X58658Y-47929D01*
X58677Y-47986D01*
X58677Y-48129D01*
X58658Y-48186D01*
X58639Y-48214D01*
X58601Y-48243D01*
X58505Y-48243D01*
X58467Y-48214D01*
X58448Y-48186D01*
G54D15*
X52178Y-34421D02*
X52178Y-34121D01*
X52250Y-34121D01*
X52293Y-34136D01*
X52321Y-34164D01*
X52336Y-34193D01*
X52350Y-34250D01*
X52350Y-34293D01*
X52336Y-34350D01*
X52321Y-34379D01*
X52293Y-34407D01*
X52250Y-34421D01*
X52178Y-34421D01*
X52636Y-34421D02*
X52464Y-34421D01*
X52550Y-34421D02*
X52550Y-34121D01*
X52521Y-34164D01*
X52493Y-34193D01*
X52464Y-34207D01*
X52207Y-37421D02*
X52064Y-37421D01*
X52064Y-37121D01*
X52307Y-37264D02*
X52407Y-37264D01*
X52450Y-37421D02*
X52307Y-37421D01*
X52307Y-37121D01*
X52450Y-37121D01*
X52578Y-37421D02*
X52578Y-37121D01*
X52650Y-37121D01*
X52693Y-37136D01*
X52721Y-37164D01*
X52736Y-37193D01*
X52750Y-37250D01*
X52750Y-37293D01*
X52736Y-37350D01*
X52721Y-37379D01*
X52693Y-37407D01*
X52650Y-37421D01*
X52578Y-37421D01*
X52178Y-30471D02*
X52178Y-30171D01*
X52250Y-30171D01*
X52293Y-30186D01*
X52321Y-30214D01*
X52336Y-30243D01*
X52350Y-30300D01*
X52350Y-30343D01*
X52336Y-30400D01*
X52321Y-30429D01*
X52293Y-30457D01*
X52250Y-30471D01*
X52178Y-30471D01*
X52464Y-30200D02*
X52478Y-30186D01*
X52507Y-30171D01*
X52578Y-30171D01*
X52607Y-30186D01*
X52621Y-30200D01*
X52636Y-30229D01*
X52636Y-30257D01*
X52621Y-30300D01*
X52450Y-30471D01*
X52636Y-30471D01*
X52207Y-33471D02*
X52064Y-33471D01*
X52064Y-33171D01*
X52307Y-33314D02*
X52407Y-33314D01*
X52450Y-33471D02*
X52307Y-33471D01*
X52307Y-33171D01*
X52450Y-33171D01*
X52578Y-33471D02*
X52578Y-33171D01*
X52650Y-33171D01*
X52693Y-33186D01*
X52721Y-33214D01*
X52736Y-33243D01*
X52750Y-33300D01*
X52750Y-33343D01*
X52736Y-33400D01*
X52721Y-33429D01*
X52693Y-33457D01*
X52650Y-33471D01*
X52578Y-33471D01*
G54D11*
X52152Y-40939D02*
X51652Y-40939D01*
X52105Y-40468D02*
X52129Y-40489D01*
X52152Y-40553D01*
X52152Y-40596D01*
X52129Y-40661D01*
X52081Y-40703D01*
X52033Y-40725D01*
X51938Y-40746D01*
X51867Y-40746D01*
X51771Y-40725D01*
X51724Y-40703D01*
X51676Y-40661D01*
X51652Y-40596D01*
X51652Y-40553D01*
X51676Y-40489D01*
X51700Y-40468D01*
X52152Y-40039D02*
X52152Y-40296D01*
X52152Y-40168D02*
X51652Y-40168D01*
X51724Y-40211D01*
X51771Y-40253D01*
X51795Y-40296D01*
X52745Y-40560D02*
X52936Y-40560D01*
X52707Y-40702D02*
X52840Y-40202D01*
X52974Y-40702D01*
X53050Y-40202D02*
X53279Y-40202D01*
X53164Y-40702D02*
X53164Y-40202D01*
X53355Y-40202D02*
X53584Y-40202D01*
X53469Y-40702D02*
X53469Y-40202D01*
X53717Y-40702D02*
X53717Y-40202D01*
X53907Y-40702D02*
X53907Y-40202D01*
X54136Y-40702D01*
X54136Y-40202D01*
X54402Y-40464D02*
X54402Y-40702D01*
X54269Y-40202D02*
X54402Y-40464D01*
X54536Y-40202D01*
X54841Y-40369D02*
X54841Y-40702D01*
X54745Y-40179D02*
X54650Y-40536D01*
X54898Y-40536D01*
X55241Y-40202D02*
X55050Y-40202D01*
X55031Y-40440D01*
X55050Y-40417D01*
X55088Y-40393D01*
X55184Y-40393D01*
X55222Y-40417D01*
X55241Y-40440D01*
X55260Y-40488D01*
X55260Y-40607D01*
X55241Y-40655D01*
X55222Y-40679D01*
X55184Y-40702D01*
X55088Y-40702D01*
X55050Y-40679D01*
X55031Y-40655D01*
X55431Y-40512D02*
X55736Y-40512D01*
X55926Y-40702D02*
X55926Y-40202D01*
X56079Y-40202D01*
X56117Y-40226D01*
X56136Y-40250D01*
X56155Y-40298D01*
X56155Y-40369D01*
X56136Y-40417D01*
X56117Y-40440D01*
X56079Y-40464D01*
X55926Y-40464D01*
X60057Y-37702D02*
X60057Y-38107D01*
X60079Y-38155D01*
X60100Y-38179D01*
X60143Y-38202D01*
X60229Y-38202D01*
X60271Y-38179D01*
X60293Y-38155D01*
X60314Y-38107D01*
X60314Y-37702D01*
X60507Y-37750D02*
X60528Y-37726D01*
X60571Y-37702D01*
X60678Y-37702D01*
X60721Y-37726D01*
X60742Y-37750D01*
X60764Y-37798D01*
X60764Y-37845D01*
X60742Y-37917D01*
X60485Y-38202D01*
X60764Y-38202D01*
X60602Y-41176D02*
X60602Y-41367D01*
X60102Y-41367D01*
X60602Y-41043D02*
X60102Y-41043D01*
X60460Y-40909D01*
X60102Y-40776D01*
X60602Y-40776D01*
X60102Y-40624D02*
X60102Y-40376D01*
X60293Y-40510D01*
X60293Y-40452D01*
X60317Y-40414D01*
X60340Y-40395D01*
X60388Y-40376D01*
X60507Y-40376D01*
X60555Y-40395D01*
X60579Y-40414D01*
X60602Y-40452D01*
X60602Y-40567D01*
X60579Y-40605D01*
X60555Y-40624D01*
X60317Y-40148D02*
X60293Y-40186D01*
X60269Y-40205D01*
X60221Y-40224D01*
X60198Y-40224D01*
X60150Y-40205D01*
X60126Y-40186D01*
X60102Y-40148D01*
X60102Y-40071D01*
X60126Y-40033D01*
X60150Y-40014D01*
X60198Y-39995D01*
X60221Y-39995D01*
X60269Y-40014D01*
X60293Y-40033D01*
X60317Y-40071D01*
X60317Y-40148D01*
X60340Y-40186D01*
X60364Y-40205D01*
X60412Y-40224D01*
X60507Y-40224D01*
X60555Y-40205D01*
X60579Y-40186D01*
X60602Y-40148D01*
X60602Y-40071D01*
X60579Y-40033D01*
X60555Y-40014D01*
X60507Y-39995D01*
X60412Y-39995D01*
X60364Y-40014D01*
X60340Y-40033D01*
X60317Y-40071D01*
X60102Y-39652D02*
X60102Y-39729D01*
X60126Y-39767D01*
X60150Y-39786D01*
X60221Y-39824D01*
X60317Y-39843D01*
X60507Y-39843D01*
X60555Y-39824D01*
X60579Y-39805D01*
X60602Y-39767D01*
X60602Y-39690D01*
X60579Y-39652D01*
X60555Y-39633D01*
X60507Y-39614D01*
X60388Y-39614D01*
X60340Y-39633D01*
X60317Y-39652D01*
X60293Y-39690D01*
X60293Y-39767D01*
X60317Y-39805D01*
X60340Y-39824D01*
X60388Y-39843D01*
G54D14*
X62817Y-45455D02*
X62793Y-45479D01*
X62722Y-45502D01*
X62674Y-45502D01*
X62602Y-45479D01*
X62555Y-45431D01*
X62531Y-45383D01*
X62507Y-45288D01*
X62507Y-45217D01*
X62531Y-45121D01*
X62555Y-45074D01*
X62602Y-45026D01*
X62674Y-45002D01*
X62722Y-45002D01*
X62793Y-45026D01*
X62817Y-45050D01*
X63293Y-45502D02*
X63007Y-45502D01*
X63150Y-45502D02*
X63150Y-45002D01*
X63102Y-45074D01*
X63055Y-45121D01*
X63007Y-45145D01*
X61841Y-47050D02*
X61865Y-47026D01*
X61913Y-47002D01*
X62032Y-47002D01*
X62079Y-47026D01*
X62103Y-47050D01*
X62127Y-47098D01*
X62127Y-47145D01*
X62103Y-47217D01*
X61817Y-47502D01*
X62127Y-47502D01*
X62317Y-47050D02*
X62341Y-47026D01*
X62389Y-47002D01*
X62508Y-47002D01*
X62555Y-47026D01*
X62579Y-47050D01*
X62603Y-47098D01*
X62603Y-47145D01*
X62579Y-47217D01*
X62293Y-47502D01*
X62603Y-47502D01*
X62912Y-47002D02*
X62960Y-47002D01*
X63008Y-47026D01*
X63031Y-47050D01*
X63055Y-47098D01*
X63079Y-47193D01*
X63079Y-47312D01*
X63055Y-47407D01*
X63031Y-47455D01*
X63008Y-47479D01*
X62960Y-47502D01*
X62912Y-47502D01*
X62865Y-47479D01*
X62841Y-47455D01*
X62817Y-47407D01*
X62793Y-47312D01*
X62793Y-47193D01*
X62817Y-47098D01*
X62841Y-47050D01*
X62865Y-47026D01*
X62912Y-47002D01*
X63507Y-47169D02*
X63507Y-47502D01*
X63293Y-47169D02*
X63293Y-47431D01*
X63317Y-47479D01*
X63364Y-47502D01*
X63436Y-47502D01*
X63484Y-47479D01*
X63507Y-47455D01*
X63912Y-47240D02*
X63745Y-47240D01*
X63745Y-47502D02*
X63745Y-47002D01*
X63983Y-47002D01*
X62967Y-35255D02*
X62943Y-35279D01*
X62872Y-35302D01*
X62824Y-35302D01*
X62752Y-35279D01*
X62705Y-35231D01*
X62681Y-35183D01*
X62657Y-35088D01*
X62657Y-35017D01*
X62681Y-34921D01*
X62705Y-34874D01*
X62752Y-34826D01*
X62824Y-34802D01*
X62872Y-34802D01*
X62943Y-34826D01*
X62967Y-34850D01*
X63419Y-34802D02*
X63181Y-34802D01*
X63157Y-35040D01*
X63181Y-35017D01*
X63229Y-34993D01*
X63348Y-34993D01*
X63395Y-35017D01*
X63419Y-35040D01*
X63443Y-35088D01*
X63443Y-35207D01*
X63419Y-35255D01*
X63395Y-35279D01*
X63348Y-35302D01*
X63229Y-35302D01*
X63181Y-35279D01*
X63157Y-35255D01*
X61991Y-36850D02*
X62015Y-36826D01*
X62063Y-36802D01*
X62182Y-36802D01*
X62229Y-36826D01*
X62253Y-36850D01*
X62277Y-36898D01*
X62277Y-36945D01*
X62253Y-37017D01*
X61967Y-37302D01*
X62277Y-37302D01*
X62467Y-36850D02*
X62491Y-36826D01*
X62539Y-36802D01*
X62658Y-36802D01*
X62705Y-36826D01*
X62729Y-36850D01*
X62753Y-36898D01*
X62753Y-36945D01*
X62729Y-37017D01*
X62443Y-37302D01*
X62753Y-37302D01*
X63062Y-36802D02*
X63110Y-36802D01*
X63158Y-36826D01*
X63181Y-36850D01*
X63205Y-36898D01*
X63229Y-36993D01*
X63229Y-37112D01*
X63205Y-37207D01*
X63181Y-37255D01*
X63158Y-37279D01*
X63110Y-37302D01*
X63062Y-37302D01*
X63015Y-37279D01*
X62991Y-37255D01*
X62967Y-37207D01*
X62943Y-37112D01*
X62943Y-36993D01*
X62967Y-36898D01*
X62991Y-36850D01*
X63015Y-36826D01*
X63062Y-36802D01*
X63657Y-36969D02*
X63657Y-37302D01*
X63443Y-36969D02*
X63443Y-37231D01*
X63467Y-37279D01*
X63514Y-37302D01*
X63586Y-37302D01*
X63634Y-37279D01*
X63657Y-37255D01*
X64062Y-37040D02*
X63895Y-37040D01*
X63895Y-37302D02*
X63895Y-36802D01*
X64133Y-36802D01*
G54D11*
X62984Y-33224D02*
X62965Y-33243D01*
X62908Y-33262D01*
X62870Y-33262D01*
X62812Y-33243D01*
X62774Y-33205D01*
X62755Y-33167D01*
X62736Y-33090D01*
X62736Y-33033D01*
X62755Y-32957D01*
X62774Y-32919D01*
X62812Y-32881D01*
X62870Y-32862D01*
X62908Y-32862D01*
X62965Y-32881D01*
X62984Y-32900D01*
X63327Y-32862D02*
X63250Y-32862D01*
X63212Y-32881D01*
X63193Y-32900D01*
X63155Y-32957D01*
X63136Y-33033D01*
X63136Y-33186D01*
X63155Y-33224D01*
X63174Y-33243D01*
X63212Y-33262D01*
X63289Y-33262D01*
X63327Y-33243D01*
X63346Y-33224D01*
X63365Y-33186D01*
X63365Y-33090D01*
X63346Y-33052D01*
X63327Y-33033D01*
X63289Y-33014D01*
X63212Y-33014D01*
X63174Y-33033D01*
X63155Y-33052D01*
X63136Y-33090D01*
X57574Y-41066D02*
X57593Y-41085D01*
X57612Y-41142D01*
X57612Y-41180D01*
X57593Y-41238D01*
X57555Y-41276D01*
X57517Y-41295D01*
X57440Y-41314D01*
X57383Y-41314D01*
X57307Y-41295D01*
X57269Y-41276D01*
X57231Y-41238D01*
X57212Y-41180D01*
X57212Y-41142D01*
X57231Y-41085D01*
X57250Y-41066D01*
X57212Y-40933D02*
X57212Y-40666D01*
X57612Y-40838D01*
X51892Y-45624D02*
X51876Y-45643D01*
X51826Y-45662D01*
X51792Y-45662D01*
X51742Y-45643D01*
X51709Y-45605D01*
X51692Y-45567D01*
X51676Y-45490D01*
X51676Y-45433D01*
X51692Y-45357D01*
X51709Y-45319D01*
X51742Y-45281D01*
X51792Y-45262D01*
X51826Y-45262D01*
X51876Y-45281D01*
X51892Y-45300D01*
X52026Y-45300D02*
X52042Y-45281D01*
X52076Y-45262D01*
X52159Y-45262D01*
X52192Y-45281D01*
X52209Y-45300D01*
X52226Y-45338D01*
X52226Y-45376D01*
X52209Y-45433D01*
X52009Y-45662D01*
X52226Y-45662D01*
X51576Y-47161D02*
X51376Y-47161D01*
X51476Y-47161D02*
X51476Y-46761D01*
X51442Y-46818D01*
X51409Y-46856D01*
X51376Y-46875D01*
X51792Y-46761D02*
X51825Y-46761D01*
X51859Y-46780D01*
X51875Y-46799D01*
X51892Y-46837D01*
X51909Y-46913D01*
X51909Y-47009D01*
X51892Y-47085D01*
X51875Y-47123D01*
X51859Y-47142D01*
X51825Y-47161D01*
X51792Y-47161D01*
X51759Y-47142D01*
X51742Y-47123D01*
X51725Y-47085D01*
X51709Y-47009D01*
X51709Y-46913D01*
X51725Y-46837D01*
X51742Y-46799D01*
X51759Y-46780D01*
X51792Y-46761D01*
X52208Y-46894D02*
X52208Y-47161D01*
X52058Y-46894D02*
X52058Y-47104D01*
X52075Y-47142D01*
X52108Y-47161D01*
X52158Y-47161D01*
X52192Y-47142D01*
X52208Y-47123D01*
X52492Y-46951D02*
X52375Y-46951D01*
X52375Y-47161D02*
X52375Y-46761D01*
X52542Y-46761D01*
X52921Y-46314D02*
X53378Y-46314D01*
X53149Y-46543D02*
X53149Y-46086D01*
X58842Y-35574D02*
X58826Y-35593D01*
X58776Y-35612D01*
X58742Y-35612D01*
X58692Y-35593D01*
X58659Y-35555D01*
X58642Y-35517D01*
X58626Y-35440D01*
X58626Y-35383D01*
X58642Y-35307D01*
X58659Y-35269D01*
X58692Y-35231D01*
X58742Y-35212D01*
X58776Y-35212D01*
X58826Y-35231D01*
X58842Y-35250D01*
X58959Y-35212D02*
X59176Y-35212D01*
X59059Y-35364D01*
X59109Y-35364D01*
X59142Y-35383D01*
X59159Y-35402D01*
X59176Y-35440D01*
X59176Y-35536D01*
X59159Y-35574D01*
X59142Y-35593D01*
X59109Y-35612D01*
X59009Y-35612D01*
X58976Y-35593D01*
X58959Y-35574D01*
X58526Y-37111D02*
X58326Y-37111D01*
X58426Y-37111D02*
X58426Y-36711D01*
X58392Y-36768D01*
X58359Y-36806D01*
X58326Y-36825D01*
X58742Y-36711D02*
X58775Y-36711D01*
X58809Y-36730D01*
X58825Y-36749D01*
X58842Y-36787D01*
X58859Y-36863D01*
X58859Y-36959D01*
X58842Y-37035D01*
X58825Y-37073D01*
X58809Y-37092D01*
X58775Y-37111D01*
X58742Y-37111D01*
X58709Y-37092D01*
X58692Y-37073D01*
X58675Y-37035D01*
X58659Y-36959D01*
X58659Y-36863D01*
X58675Y-36787D01*
X58692Y-36749D01*
X58709Y-36730D01*
X58742Y-36711D01*
X59158Y-36844D02*
X59158Y-37111D01*
X59008Y-36844D02*
X59008Y-37054D01*
X59025Y-37092D01*
X59058Y-37111D01*
X59108Y-37111D01*
X59142Y-37092D01*
X59158Y-37073D01*
X59442Y-36901D02*
X59325Y-36901D01*
X59325Y-37111D02*
X59325Y-36711D01*
X59492Y-36711D01*
X59871Y-36264D02*
X60328Y-36264D01*
X60099Y-36493D02*
X60099Y-36036D01*
G54D12*
X51979Y-48529D02*
X52065Y-48557D01*
X52093Y-48586D01*
X52122Y-48643D01*
X52122Y-48729D01*
X52093Y-48786D01*
X52065Y-48814D01*
X52007Y-48843D01*
X51779Y-48843D01*
X51779Y-48243D01*
X51979Y-48243D01*
X52036Y-48271D01*
X52065Y-48300D01*
X52093Y-48357D01*
X52093Y-48414D01*
X52065Y-48471D01*
X52036Y-48500D01*
X51979Y-48529D01*
X51779Y-48529D01*
X52293Y-48243D02*
X52636Y-48243D01*
X52465Y-48843D02*
X52465Y-48243D01*
X53150Y-48843D02*
X52807Y-48843D01*
X52979Y-48843D02*
X52979Y-48243D01*
X52922Y-48329D01*
X52864Y-48386D01*
X52807Y-48414D01*
X50951Y-52529D02*
X51037Y-52557D01*
X51065Y-52586D01*
X51094Y-52643D01*
X51094Y-52729D01*
X51065Y-52786D01*
X51037Y-52814D01*
X50979Y-52843D01*
X50751Y-52843D01*
X50751Y-52243D01*
X50951Y-52243D01*
X51008Y-52271D01*
X51037Y-52300D01*
X51065Y-52357D01*
X51065Y-52414D01*
X51037Y-52471D01*
X51008Y-52500D01*
X50951Y-52529D01*
X50751Y-52529D01*
X51322Y-52671D02*
X51608Y-52671D01*
X51265Y-52843D02*
X51465Y-52243D01*
X51665Y-52843D01*
X51779Y-52243D02*
X52122Y-52243D01*
X51951Y-52843D02*
X51951Y-52243D01*
X52236Y-52243D02*
X52579Y-52243D01*
X52408Y-52843D02*
X52408Y-52243D01*
X52779Y-52529D02*
X52979Y-52529D01*
X53065Y-52843D02*
X52779Y-52843D01*
X52779Y-52243D01*
X53065Y-52243D01*
X53665Y-52843D02*
X53465Y-52557D01*
X53322Y-52843D02*
X53322Y-52243D01*
X53550Y-52243D01*
X53608Y-52271D01*
X53636Y-52300D01*
X53665Y-52357D01*
X53665Y-52443D01*
X53636Y-52500D01*
X53608Y-52529D01*
X53550Y-52557D01*
X53322Y-52557D01*
X54036Y-52557D02*
X54036Y-52843D01*
X53836Y-52243D02*
X54036Y-52557D01*
X54236Y-52243D01*
X55393Y-34814D02*
X55479Y-34843D01*
X55622Y-34843D01*
X55679Y-34814D01*
X55708Y-34786D01*
X55736Y-34729D01*
X55736Y-34671D01*
X55708Y-34614D01*
X55679Y-34586D01*
X55622Y-34557D01*
X55508Y-34529D01*
X55450Y-34500D01*
X55422Y-34471D01*
X55393Y-34414D01*
X55393Y-34357D01*
X55422Y-34300D01*
X55450Y-34271D01*
X55508Y-34243D01*
X55650Y-34243D01*
X55736Y-34271D01*
X55993Y-34843D02*
X55993Y-34243D01*
X56221Y-34243D01*
X56279Y-34271D01*
X56307Y-34300D01*
X56336Y-34357D01*
X56336Y-34443D01*
X56307Y-34500D01*
X56279Y-34529D01*
X56221Y-34557D01*
X55993Y-34557D01*
X56593Y-34529D02*
X56793Y-34529D01*
X56879Y-34843D02*
X56593Y-34843D01*
X56593Y-34243D01*
X56879Y-34243D01*
X57107Y-34671D02*
X57393Y-34671D01*
X57050Y-34843D02*
X57250Y-34243D01*
X57450Y-34843D01*
X57650Y-34843D02*
X57650Y-34243D01*
X57993Y-34843D02*
X57736Y-34500D01*
X57993Y-34243D02*
X57650Y-34586D01*
X58250Y-34529D02*
X58450Y-34529D01*
X58536Y-34843D02*
X58250Y-34843D01*
X58250Y-34243D01*
X58536Y-34243D01*
X59136Y-34843D02*
X58936Y-34557D01*
X58793Y-34843D02*
X58793Y-34243D01*
X59021Y-34243D01*
X59079Y-34271D01*
X59107Y-34300D01*
X59136Y-34357D01*
X59136Y-34443D01*
X59107Y-34500D01*
X59079Y-34529D01*
X59021Y-34557D01*
X58793Y-34557D01*
X59707Y-34843D02*
X59364Y-34843D01*
X59536Y-34843D02*
X59536Y-34243D01*
X59479Y-34329D01*
X59421Y-34386D01*
X59364Y-34414D01*
X57194Y-30500D02*
X57136Y-30471D01*
X57108Y-30443D01*
X57079Y-30386D01*
X57079Y-30357D01*
X57108Y-30300D01*
X57136Y-30271D01*
X57194Y-30243D01*
X57308Y-30243D01*
X57365Y-30271D01*
X57394Y-30300D01*
X57422Y-30357D01*
X57422Y-30386D01*
X57394Y-30443D01*
X57365Y-30471D01*
X57308Y-30500D01*
X57194Y-30500D01*
X57136Y-30529D01*
X57108Y-30557D01*
X57079Y-30614D01*
X57079Y-30729D01*
X57108Y-30786D01*
X57136Y-30814D01*
X57194Y-30843D01*
X57308Y-30843D01*
X57365Y-30814D01*
X57394Y-30786D01*
X57422Y-30729D01*
X57422Y-30614D01*
X57394Y-30557D01*
X57365Y-30529D01*
X57308Y-30500D01*
X58022Y-30843D02*
X57822Y-30557D01*
X57679Y-30843D02*
X57679Y-30243D01*
X57907Y-30243D01*
X57965Y-30271D01*
X57993Y-30300D01*
X58022Y-30357D01*
X58022Y-30443D01*
X57993Y-30500D01*
X57965Y-30529D01*
X57907Y-30557D01*
X57679Y-30557D01*
X62400Y-48914D02*
X62486Y-48943D01*
X62629Y-48943D01*
X62686Y-48914D01*
X62715Y-48886D01*
X62743Y-48829D01*
X62743Y-48771D01*
X62715Y-48714D01*
X62686Y-48686D01*
X62629Y-48657D01*
X62515Y-48629D01*
X62457Y-48600D01*
X62429Y-48571D01*
X62400Y-48514D01*
X62400Y-48457D01*
X62429Y-48400D01*
X62457Y-48371D01*
X62515Y-48343D01*
X62657Y-48343D01*
X62743Y-48371D01*
X62943Y-48343D02*
X63086Y-48943D01*
X63200Y-48514D01*
X63314Y-48943D01*
X63457Y-48343D01*
X64000Y-48943D02*
X63657Y-48943D01*
X63829Y-48943D02*
X63829Y-48343D01*
X63772Y-48429D01*
X63714Y-48486D01*
X63657Y-48514D01*
X62772Y-52943D02*
X62772Y-52343D01*
X63115Y-52943D01*
X63115Y-52343D01*
X63601Y-52629D02*
X63401Y-52629D01*
X63401Y-52943D02*
X63401Y-52343D01*
X63687Y-52343D01*
G54D11*
X53925Y-35169D02*
X53899Y-35145D01*
X53873Y-35097D01*
X53873Y-34978D01*
X53899Y-34931D01*
X53925Y-34907D01*
X53977Y-34883D01*
X54030Y-34883D01*
X54108Y-34907D01*
X54423Y-35193D01*
X54423Y-34883D01*
X53925Y-34693D02*
X53899Y-34669D01*
X53873Y-34621D01*
X53873Y-34502D01*
X53899Y-34455D01*
X53925Y-34431D01*
X53977Y-34407D01*
X54030Y-34407D01*
X54108Y-34431D01*
X54423Y-34717D01*
X54423Y-34407D01*
X53873Y-34098D02*
X53873Y-34050D01*
X53899Y-34002D01*
X53925Y-33979D01*
X53977Y-33955D01*
X54082Y-33931D01*
X54213Y-33931D01*
X54318Y-33955D01*
X54370Y-33979D01*
X54396Y-34002D01*
X54423Y-34050D01*
X54423Y-34098D01*
X54396Y-34145D01*
X54370Y-34169D01*
X54318Y-34193D01*
X54213Y-34217D01*
X54082Y-34217D01*
X53977Y-34193D01*
X53925Y-34169D01*
X53899Y-34145D01*
X53873Y-34098D01*
X54423Y-33431D02*
X54161Y-33598D01*
X54423Y-33717D02*
X53873Y-33717D01*
X53873Y-33526D01*
X53899Y-33479D01*
X53925Y-33455D01*
X53977Y-33431D01*
X54056Y-33431D01*
X54108Y-33455D01*
X54135Y-33479D01*
X54161Y-33526D01*
X54161Y-33717D01*
X53105Y-43373D02*
X52819Y-43373D01*
X52962Y-43373D02*
X52962Y-42823D01*
X52914Y-42901D01*
X52867Y-42954D01*
X52819Y-42980D01*
X53414Y-42823D02*
X53462Y-42823D01*
X53510Y-42849D01*
X53533Y-42875D01*
X53557Y-42927D01*
X53581Y-43032D01*
X53581Y-43163D01*
X53557Y-43268D01*
X53533Y-43320D01*
X53510Y-43346D01*
X53462Y-43373D01*
X53414Y-43373D01*
X53367Y-43346D01*
X53343Y-43320D01*
X53319Y-43268D01*
X53295Y-43163D01*
X53295Y-43032D01*
X53319Y-42927D01*
X53343Y-42875D01*
X53367Y-42849D01*
X53414Y-42823D01*
X53795Y-43373D02*
X53795Y-42823D01*
X54081Y-43373D02*
X53866Y-43058D01*
X54081Y-42823D02*
X53795Y-43137D01*
M02*
